# Blender v2.90.1 OBJ File: 'lilypad.blend'
# www.blender.org
mtllib lilypad.mtl
o Cylinder
v 0.000000 0.127835 -0.904775
v 0.176513 0.127835 -0.887390
v 0.346242 0.127835 -0.835903
v 0.502666 0.127835 -0.752293
v 0.639773 0.127835 -0.639773
v 0.752293 0.127835 -0.502666
v 0.835903 0.127835 -0.346242
v 0.887390 0.127835 -0.176513
v 0.904775 0.127835 -0.000000
v 0.887390 0.127835 0.176513
v 0.835903 0.127835 0.346242
v 0.752293 0.127835 0.502666
v 0.639773 0.127835 0.639773
v 0.502666 0.127835 0.752293
v 0.346242 0.127835 0.835903
v 0.176513 0.127835 0.887390
v -0.000000 0.127835 0.904775
v -0.176513 0.127835 0.887390
v -0.346243 0.127835 0.835903
v -0.502667 0.127835 0.752293
v -0.639773 0.127835 0.639772
v -0.752293 0.127835 0.502666
v -0.835903 0.127835 0.346242
v -0.835903 0.127835 -0.346243
v -0.752292 0.127835 -0.502667
v -0.639772 0.127835 -0.639773
v -0.502665 0.127835 -0.752294
v -0.346241 0.127835 -0.835904
v -0.176511 0.127835 -0.887390
v 0.000000 -0.033664 -1.000000
v 0.000000 0.151051 -1.000000
v 0.195090 -0.033664 -0.980785
v 0.195090 0.151051 -0.980785
v 0.382683 -0.033664 -0.923880
v 0.382683 0.151051 -0.923880
v 0.555570 -0.033664 -0.831470
v 0.555570 0.151051 -0.831470
v 0.707107 -0.033664 -0.707107
v 0.707107 0.151051 -0.707107
v 0.831470 -0.033664 -0.555570
v 0.831470 0.151051 -0.555570
v 0.923880 -0.033664 -0.382683
v 0.923880 0.151051 -0.382683
v 0.980785 -0.033664 -0.195090
v 0.980785 0.151051 -0.195090
v 1.000000 -0.033664 -0.000000
v 1.000000 0.151051 -0.000000
v 0.980785 -0.033664 0.195090
v 0.980785 0.151051 0.195090
v 0.923880 -0.033664 0.382683
v 0.923880 0.151051 0.382683
v 0.831470 -0.033664 0.555570
v 0.831470 0.151051 0.555570
v 0.707107 -0.033664 0.707107
v 0.707107 0.151051 0.707107
v 0.555570 -0.033664 0.831470
v 0.555570 0.151051 0.831470
v 0.382683 -0.033664 0.923880
v 0.382683 0.151051 0.923880
v 0.195090 -0.033664 0.980785
v 0.195090 0.151051 0.980785
v -0.000000 -0.033664 1.000000
v -0.000000 0.151051 1.000000
v -0.195091 -0.033664 0.980785
v -0.195091 0.151051 0.980785
v -0.382684 -0.033664 0.923879
v -0.382684 0.151051 0.923879
v -0.555571 -0.033664 0.831469
v -0.555571 0.151051 0.831469
v -0.707107 -0.033664 0.707106
v -0.707107 0.151051 0.707106
v -0.831470 -0.033664 0.555570
v -0.831470 0.151051 0.555570
v -0.923880 -0.033664 0.382683
v -0.923880 0.151051 0.382683
v -0.923879 -0.033664 -0.382684
v -0.923879 0.151051 -0.382684
v -0.831469 -0.033664 -0.555571
v -0.831469 0.151051 -0.555571
v -0.707106 -0.033664 -0.707108
v -0.707106 0.151051 -0.707108
v -0.555569 -0.033664 -0.831470
v -0.555569 0.151051 -0.831470
v -0.382682 -0.033664 -0.923880
v -0.382682 0.151051 -0.923880
v -0.195089 -0.033664 -0.980786
v -0.195089 0.151051 -0.980786
v 0.000000 0.151051 -0.904775
v 0.176513 0.151051 -0.887390
v -0.176511 0.151051 -0.887390
v -0.346241 0.151051 -0.835904
v 0.346242 0.151051 -0.835903
v -0.502665 0.151051 -0.752294
v 0.502666 0.151051 -0.752293
v 0.639773 0.151051 -0.639773
v -0.639772 0.151051 -0.639773
v -0.752292 0.151051 -0.502667
v 0.752293 0.151051 -0.502666
v -0.835903 0.151051 -0.346243
v 0.835903 0.151051 -0.346242
v 0.887390 0.151051 -0.176513
v 0.904775 0.151051 -0.000000
v 0.887390 0.151051 0.176513
v 0.835903 0.151051 0.346242
v 0.752293 0.151051 0.502666
v 0.639773 0.151051 0.639773
v 0.502666 0.151051 0.752293
v 0.346242 0.151051 0.835903
v 0.176513 0.151051 0.887390
v -0.000000 0.151051 0.904775
v -0.176513 0.151051 0.887390
v -0.502667 0.151051 0.752293
v -0.346243 0.151051 0.835903
v -0.835903 0.151051 0.346242
v -0.639773 0.151051 0.639772
v -0.752293 0.151051 0.502666
v -0.192906 0.127835 0.058873
v -0.192906 -0.033664 0.058873
v -0.938333 -0.033664 0.335038
v -0.854959 0.127835 -0.283425
v -0.940563 -0.033664 -0.327685
v -0.854959 0.151051 -0.283425
v -0.940563 0.151051 -0.327685
v -0.849307 0.127835 0.302056
v -0.849307 0.151051 0.302056
v -0.938333 0.151051 0.335038
vt 1.000000 0.500000
vt 0.968750 0.500000
vt 0.968750 0.569457
vt 1.000000 0.569457
vt 0.937500 0.500000
vt 0.937500 0.569457
vt 0.906250 0.500000
vt 0.906250 0.569457
vt 0.875000 0.500000
vt 0.875000 0.569457
vt 0.843750 0.500000
vt 0.843750 0.569457
vt 0.812500 0.500000
vt 0.812500 0.569457
vt 0.781250 0.500000
vt 0.781250 0.569457
vt 0.750000 0.500000
vt 0.750000 0.569457
vt 0.718750 0.500000
vt 0.718750 0.569457
vt 0.687500 0.500000
vt 0.687500 0.569457
vt 0.656250 0.500000
vt 0.656250 0.569457
vt 0.625000 0.500000
vt 0.625000 0.569457
vt 0.593750 0.500000
vt 0.593750 0.569457
vt 0.562500 0.500000
vt 0.562500 0.569457
vt 0.531250 0.500000
vt 0.531250 0.569457
vt 0.500000 0.500000
vt 0.500000 0.569457
vt 0.468750 0.500000
vt 0.468750 0.569457
vt 0.437500 0.500000
vt 0.437500 0.569457
vt 0.406250 0.500000
vt 0.406250 0.569457
vt 0.375000 0.500000
vt 0.375000 0.569457
vt 0.343750 0.500000
vt 0.343750 0.569457
vt 0.312500 0.500000
vt 0.312500 0.569457
vt 0.304365 0.500000
vt 0.304365 0.569457
vt 0.187500 0.500000
vt 0.156250 0.500000
vt 0.156250 0.569457
vt 0.187500 0.569457
vt 0.125000 0.500000
vt 0.125000 0.569457
vt 0.093750 0.500000
vt 0.093750 0.569457
vt 0.062500 0.500000
vt 0.062500 0.569457
vt 0.031250 0.500000
vt 0.031250 0.569457
vt 0.000000 0.500000
vt 0.000000 0.569457
vt 0.750000 0.490000
vt 0.703179 0.485389
vt 0.658156 0.471731
vt 0.616663 0.449553
vt 0.580295 0.419706
vt 0.550447 0.383337
vt 0.528269 0.341844
vt 0.523214 0.325181
vt 0.698830 0.234383
vt 0.524713 0.169877
vt 0.528269 0.158156
vt 0.550447 0.116663
vt 0.580294 0.080294
vt 0.616663 0.050447
vt 0.658156 0.028269
vt 0.703178 0.014612
vt 0.750000 0.010000
vt 0.796822 0.014612
vt 0.841844 0.028269
vt 0.883337 0.050447
vt 0.919706 0.080294
vt 0.949553 0.116663
vt 0.971731 0.158156
vt 0.985388 0.203178
vt 0.990000 0.250000
vt 0.985388 0.296822
vt 0.971731 0.341844
vt 0.949553 0.383337
vt 0.919706 0.419706
vt 0.883337 0.449553
vt 0.841844 0.471731
vt 0.796822 0.485388
vt 1.000000 0.500000
vt 1.000000 1.000000
vt 0.968750 1.000000
vt 0.968750 0.500000
vt 0.937500 1.000000
vt 0.937500 0.500000
vt 0.906250 1.000000
vt 0.906250 0.500000
vt 0.875000 1.000000
vt 0.875000 0.500000
vt 0.843750 1.000000
vt 0.843750 0.500000
vt 0.812500 1.000000
vt 0.812500 0.500000
vt 0.781250 1.000000
vt 0.781250 0.500000
vt 0.750000 1.000000
vt 0.750000 0.500000
vt 0.718750 1.000000
vt 0.718750 0.500000
vt 0.687500 1.000000
vt 0.687500 0.500000
vt 0.656250 1.000000
vt 0.656250 0.500000
vt 0.625000 1.000000
vt 0.625000 0.500000
vt 0.593750 1.000000
vt 0.593750 0.500000
vt 0.562500 1.000000
vt 0.562500 0.500000
vt 0.531250 1.000000
vt 0.531250 0.500000
vt 0.500000 1.000000
vt 0.500000 0.500000
vt 0.468750 1.000000
vt 0.468750 0.500000
vt 0.437500 1.000000
vt 0.437500 0.500000
vt 0.406250 1.000000
vt 0.406250 0.500000
vt 0.375000 1.000000
vt 0.375000 0.500000
vt 0.343750 1.000000
vt 0.343750 0.500000
vt 0.312500 1.000000
vt 0.312500 0.500000
vt 0.304563 1.000000
vt 0.304563 0.500000
vt 0.187500 0.500000
vt 0.187500 1.000000
vt 0.156250 1.000000
vt 0.156250 0.500000
vt 0.125000 1.000000
vt 0.125000 0.500000
vt 0.093750 1.000000
vt 0.093750 0.500000
vt 0.062500 1.000000
vt 0.062500 0.500000
vt 0.296822 0.485388
vt 0.250000 0.490000
vt 0.203179 0.485389
vt 0.158156 0.471731
vt 0.116663 0.449553
vt 0.080295 0.419706
vt 0.050447 0.383337
vt 0.028269 0.341844
vt 0.024265 0.328644
vt 0.044810 0.318022
vt 0.049383 0.333098
vt 0.069450 0.370640
vt 0.096455 0.403546
vt 0.129360 0.430550
vt 0.166902 0.450617
vt 0.207637 0.462974
vt 0.250000 0.467146
vt 0.292363 0.462974
vt 0.333098 0.450617
vt 0.370640 0.430550
vt 0.403545 0.403545
vt 0.430550 0.370640
vt 0.450617 0.333098
vt 0.462974 0.292363
vt 0.467146 0.250000
vt 0.490000 0.250000
vt 0.485388 0.296822
vt 0.471731 0.341844
vt 0.449553 0.383337
vt 0.419706 0.419706
vt 0.383337 0.449553
vt 0.341844 0.471731
vt 0.031250 1.000000
vt 0.031250 0.500000
vt 0.000000 1.000000
vt 0.000000 0.500000
vt 0.750000 0.490000
vt 0.796822 0.485388
vt 0.841844 0.471731
vt 0.883337 0.449553
vt 0.919706 0.419706
vt 0.949553 0.383337
vt 0.971731 0.341844
vt 0.985388 0.296822
vt 0.990000 0.250000
vt 0.985388 0.203178
vt 0.971731 0.158156
vt 0.949553 0.116663
vt 0.919706 0.080294
vt 0.883337 0.050447
vt 0.841844 0.028269
vt 0.796822 0.014612
vt 0.750000 0.010000
vt 0.703178 0.014612
vt 0.658156 0.028269
vt 0.616663 0.050447
vt 0.580294 0.080294
vt 0.550447 0.116663
vt 0.528269 0.158156
vt 0.524800 0.169591
vt 0.703702 0.235871
vt 0.524265 0.328644
vt 0.528269 0.341844
vt 0.550447 0.383337
vt 0.580295 0.419706
vt 0.616663 0.449553
vt 0.658156 0.471731
vt 0.703179 0.485389
vt 0.462974 0.207637
vt 0.450617 0.166902
vt 0.430550 0.129360
vt 0.403545 0.096455
vt 0.370640 0.069450
vt 0.333098 0.049383
vt 0.292363 0.037026
vt 0.250000 0.032854
vt 0.207637 0.037026
vt 0.166902 0.049383
vt 0.129360 0.069450
vt 0.096454 0.096455
vt 0.069450 0.129360
vt 0.049383 0.166902
vt 0.046166 0.177507
vt 0.024800 0.169591
vt 0.028269 0.158156
vt 0.050447 0.116663
vt 0.080294 0.080294
vt 0.116663 0.050447
vt 0.158156 0.028269
vt 0.203178 0.014612
vt 0.250000 0.010000
vt 0.296822 0.014612
vt 0.341844 0.028269
vt 0.383337 0.050447
vt 0.419706 0.080294
vt 0.449553 0.116663
vt 0.471731 0.158156
vt 0.485388 0.203178
vt 0.199066 0.569457
vt 0.199066 0.500000
vt 0.196662 0.500000
vt 0.196662 1.000000
vt 0.545990 0.250000
vt 0.487889 0.250000
vt 0.487889 0.354875
vt 0.554343 0.354875
vt 0.554343 0.342350
vt 0.545990 0.342350
vt 0.545990 0.150245
vt 0.554343 0.150245
vt 0.554343 0.137347
vt 0.487889 0.137347
vn 0.0000 0.6857 0.7279
vn -0.1420 0.6857 0.7139
vn -0.2785 0.6857 0.6725
vn -0.4044 0.6857 0.6052
vn -0.5147 0.6857 0.5147
vn -0.6052 0.6857 0.4044
vn -0.6725 0.6857 0.2785
vn -0.7139 0.6857 0.1420
vn -0.7279 0.6857 0.0000
vn -0.6836 0.7298 0.0000
vn -0.7139 0.6857 -0.1420
vn -0.6725 0.6857 -0.2785
vn -0.6052 0.6857 -0.4044
vn -0.5147 0.6857 -0.5147
vn -0.4044 0.6857 -0.6052
vn -0.2785 0.6857 -0.6725
vn -0.1420 0.6857 -0.7139
vn 0.0000 0.6857 -0.7279
vn 0.1420 0.6857 -0.7139
vn 0.2785 0.6857 -0.6725
vn 0.4044 0.6857 -0.6052
vn 0.5147 0.6857 -0.5147
vn 0.6052 0.6857 -0.4044
vn 0.6725 0.6857 -0.2785
vn 0.3544 0.6037 -0.7140
vn 0.3640 0.5742 -0.7333
vn 0.6725 0.6857 0.2785
vn 0.6052 0.6857 0.4044
vn 0.5147 0.6857 0.5147
vn 0.4044 0.6857 0.6052
vn 0.2785 0.6857 0.6725
vn 0.1420 0.6857 0.7139
vn 0.2931 0.6574 0.6941
vn -0.8348 0.5481 -0.0511
vn 0.0000 -0.6857 -0.7279
vn 0.1420 -0.6857 -0.7139
vn 0.2785 -0.6857 -0.6725
vn 0.4044 -0.6857 -0.6052
vn 0.5147 -0.6857 -0.5147
vn 0.6052 -0.6857 -0.4044
vn 0.6725 -0.6857 -0.2785
vn 0.7139 0.6857 -0.1420
vn 0.7139 -0.6857 -0.1420
vn 0.7279 0.6857 0.0000
vn 0.7279 -0.6857 0.0000
vn 0.7139 0.6857 0.1420
vn 0.7139 -0.6857 0.1420
vn 0.6725 -0.6857 0.2785
vn 0.6052 -0.6857 0.4044
vn 0.5147 -0.6857 0.5147
vn 0.4044 -0.6857 0.6052
vn 0.2785 -0.6857 0.6725
vn 0.1420 -0.6857 0.7139
vn 0.0000 -0.6857 0.7279
vn -0.1420 -0.6857 0.7139
vn -0.2785 -0.6857 0.6725
vn -0.4044 -0.6857 0.6052
vn -0.5147 -0.6857 0.5147
vn -0.6052 -0.6857 0.4044
vn -0.6725 -0.6857 0.2785
vn -0.7293 0.5806 -0.3620
vn -0.7293 -0.5806 -0.3620
vn -0.6725 -0.6857 -0.2785
vn -0.6052 -0.6857 -0.4044
vn -0.5147 -0.6857 -0.5147
vn -0.4044 -0.6857 -0.6052
vn -0.2785 -0.6857 -0.6725
vn -0.7454 0.5875 0.3148
vn 0.3200 0.5683 0.7580
vn -0.1420 -0.6857 -0.7139
vn -0.8348 -0.5481 -0.0511
vn -0.7454 -0.5875 0.3148
usemtl None
s 1
f 1/1/1 2/2/2 89/3/2 88/4/1
f 2/2/2 3/5/3 92/6/3 89/3/2
f 3/5/3 4/7/4 94/8/4 92/6/3
f 4/7/4 5/9/5 95/10/5 94/8/4
f 5/9/5 6/11/6 98/12/6 95/10/5
f 6/11/6 7/13/7 100/14/7 98/12/6
f 7/13/7 8/15/8 101/16/8 100/14/7
f 8/15/8 9/17/9 102/18/10 101/16/8
f 9/17/9 10/19/11 103/20/11 102/18/10
f 10/19/11 11/21/12 104/22/12 103/20/11
f 11/21/12 12/23/13 105/24/13 104/22/12
f 12/23/13 13/25/14 106/26/14 105/24/13
f 13/25/14 14/27/15 107/28/15 106/26/14
f 14/27/15 15/29/16 108/30/16 107/28/15
f 15/29/16 16/31/17 109/32/17 108/30/16
f 16/31/17 17/33/18 110/34/18 109/32/17
f 17/33/18 18/35/19 111/36/19 110/34/18
f 18/35/19 19/37/20 113/38/20 111/36/19
f 19/37/20 20/39/21 112/40/21 113/38/20
f 20/39/21 21/41/22 115/42/22 112/40/21
f 21/41/22 22/43/23 116/44/23 115/42/22
f 22/43/23 23/45/24 114/46/24 116/44/23
f 23/45/24 124/47/25 125/48/26 114/46/24
f 24/49/27 25/50/28 97/51/28 99/52/27
f 25/50/28 26/53/29 96/54/29 97/51/28
f 26/53/29 27/55/30 93/56/30 96/54/29
f 27/55/30 28/57/31 91/58/31 93/56/30
f 28/57/31 29/59/32 90/60/32 91/58/31
f 29/59/32 1/61/1 88/62/1 90/60/32
f 1/63/1 29/64/32 28/65/31 27/66/30 26/67/29 25/68/28 24/69/27 120/70/33 117/71/34 124/72/25 23/73/24 22/74/23 21/75/22 20/76/21 19/77/20 18/78/19 17/79/18 16/80/17 15/81/16 14/82/15 13/83/14 12/84/13 11/85/12 10/86/11 9/87/9 8/88/8 7/89/7 6/90/6 5/91/5 4/92/4 3/93/3 2/94/2
f 30/95/35 31/96/18 33/97/19 32/98/36
f 32/98/36 33/97/19 35/99/20 34/100/37
f 34/100/37 35/99/20 37/101/21 36/102/38
f 36/102/38 37/101/21 39/103/22 38/104/39
f 38/104/39 39/103/22 41/105/23 40/106/40
f 40/106/40 41/105/23 43/107/24 42/108/41
f 42/108/41 43/107/24 45/109/42 44/110/43
f 44/110/43 45/109/42 47/111/44 46/112/45
f 46/112/45 47/111/44 49/113/46 48/114/47
f 48/114/47 49/113/46 51/115/27 50/116/48
f 50/116/48 51/115/27 53/117/28 52/118/49
f 52/118/49 53/117/28 55/119/29 54/120/50
f 54/120/50 55/119/29 57/121/30 56/122/51
f 56/122/51 57/121/30 59/123/31 58/124/52
f 58/124/52 59/123/31 61/125/32 60/126/53
f 60/126/53 61/125/32 63/127/1 62/128/54
f 62/128/54 63/127/1 65/129/2 64/130/55
f 64/130/55 65/129/2 67/131/3 66/132/56
f 66/132/56 67/131/3 69/133/4 68/134/57
f 68/134/57 69/133/4 71/135/5 70/136/58
f 70/136/58 71/135/5 73/137/6 72/138/59
f 72/138/59 73/137/6 75/139/7 74/140/60
f 74/140/60 75/139/7 126/141/61 119/142/62
f 76/143/63 77/144/12 79/145/13 78/146/64
f 78/146/64 79/145/13 81/147/14 80/148/65
f 80/148/65 81/147/14 83/149/15 82/150/66
f 82/150/66 83/149/15 85/151/16 84/152/67
f 33/153/19 31/154/18 87/155/17 85/156/16 83/157/15 81/158/14 79/159/13 77/160/12 123/161/68 122/162/69 99/163/27 97/164/28 96/165/29 93/166/30 91/167/31 90/168/32 88/169/1 89/170/2 92/171/3 94/172/4 95/173/5 98/174/6 100/175/7 101/176/8 102/177/10 47/178/44 45/179/42 43/180/24 41/181/23 39/182/22 37/183/21 35/184/20
f 84/152/67 85/151/16 87/185/17 86/186/70
f 86/186/70 87/185/17 31/187/18 30/188/35
f 30/189/35 32/190/36 34/191/37 36/192/38 38/193/39 40/194/40 42/195/41 44/196/43 46/197/45 48/198/47 50/199/48 52/200/49 54/201/50 56/202/51 58/203/52 60/204/53 62/205/54 64/206/55 66/207/56 68/208/57 70/209/58 72/210/59 74/211/60 119/212/62 118/213/71 121/214/72 76/215/63 78/216/64 80/217/65 82/218/66 84/219/67 86/220/70
f 47/178/44 102/177/10 103/221/11 104/222/12 105/223/13 106/224/14 107/225/15 108/226/16 109/227/17 110/228/18 111/229/19 113/230/20 112/231/21 115/232/22 116/233/23 114/234/24 125/235/26 126/236/61 75/237/7 73/238/6 71/239/5 69/240/4 67/241/3 65/242/2 63/243/1 61/244/32 59/245/31 57/246/30 55/247/29 53/248/28 51/249/27 49/250/46
f 122/251/69 120/252/33 24/49/27 99/52/27
f 121/253/72 123/254/68 77/144/12 76/143/63
f 117/255/34 118/256/71 119/257/62 126/258/61 125/259/26 124/260/25
f 118/256/71 117/255/34 120/261/33 122/262/69 123/263/68 121/264/72
